<svg width="460" height="800" viewBox="0 0 460 800" fill="none" xmlns="http://www.w3.org/2000/svg">
<path d="M457.484 7.26361C454.907 2.77012 450.124 0 444.944 0H146.916C140.713 0 135.2 3.95759 133.216 9.83518L5.48979 388.281C4.00159 392.694 4.73027 397.554 7.44448 401.336C10.1606 405.118 14.5327 407.362 19.19 407.362H140.273L0.915325 780.484C-1.54829 787.081 1.10038 794.494 7.18809 798.038C9.46279 799.36 11.9688 800 14.4536 800C18.6175 800 22.7177 798.203 25.5495 794.82L413.459 331.225C417.062 326.919 417.846 320.916 415.47 315.828C413.095 310.741 407.986 307.489 402.371 307.489H290.382L457.426 21.7561C460.04 17.2839 460.063 11.7571 457.484 7.26361ZM252.697 314.647C250.084 319.119 250.06 324.646 252.64 329.139C255.217 333.633 260 336.403 265.179 336.403H371.418L57.5361 711.532L174.652 397.962C176.31 393.525 175.687 388.555 172.985 384.661C170.284 380.769 165.846 378.446 161.108 378.446H39.3288L157.295 28.9157H419.743L252.697 314.647Z" fill="#6FAD68"/>
</svg>
